<svg version="1.1" id="Layer_1" xmlns="http://www.w3.org/2000/svg" xmlns:xlink="http://www.w3.org/1999/xlink" x="0px" y="0px"
	 width="100%" viewBox="0 0 504 123" enable-background="new 0 0 504 123" xml:space="preserve">
<path fill="#FEFEFE" opacity="1.000000" stroke="none" 
	d="
M333.000000,124.000000 
	C222.000031,124.000000 111.500069,124.000000 1.000074,124.000000 
	C1.000049,83.000046 1.000049,42.000092 1.000025,1.000102 
	C168.999908,1.000068 336.999817,1.000068 504.999817,1.000034 
	C504.999878,41.999893 504.999878,82.999786 504.999939,123.999840 
	C447.833344,124.000000 390.666656,124.000000 333.000000,124.000000 
M108.985420,108.512985 
	C117.225342,101.438423 118.388237,91.850327 118.424232,81.874092 
	C118.472359,68.535667 118.519089,55.197159 118.520218,41.858677 
	C118.520859,34.325260 118.308151,26.921585 113.853554,20.225433 
	C106.884819,9.750023 96.540840,6.316204 84.844406,6.077888 
	C69.699524,5.769310 54.542721,5.899627 39.392658,6.029087 
	C21.551222,6.181546 7.418022,18.976801 7.912097,37.728519 
	C8.332948,53.701084 8.360826,69.703812 7.906437,85.674538 
	C7.356939,104.988159 22.922258,117.219467 39.199680,117.037041 
	C55.014847,116.859795 70.834564,117.104698 86.650291,116.954628 
	C94.780991,116.877487 102.400696,114.957619 108.985420,108.512985 
M134.327011,66.499855 
	C134.327011,77.263817 134.327011,88.027779 134.327011,98.885170 
	C145.253571,98.885170 155.590576,99.348282 165.871078,98.783363 
	C184.125061,97.780296 194.976059,87.936874 197.610458,70.270264 
	C198.363342,65.221382 198.291138,59.936207 197.800415,54.836060 
	C196.235092,38.567387 187.229797,28.683716 171.160477,25.788454 
	C165.811905,24.824787 160.241302,24.974897 154.767014,24.857912 
	C148.035980,24.714069 141.299545,24.823576 134.327026,24.823576 
	C134.327026,38.903439 134.327026,52.201645 134.327011,66.499855 
M482.233368,91.404396 
	C482.233368,93.844368 482.233368,96.284332 482.233368,98.753754 
	C487.246338,98.753754 491.676147,98.753754 496.104675,98.753754 
	C496.104675,85.205238 496.385437,71.900177 496.006805,58.613914 
	C495.750549,49.621716 491.071045,44.084324 483.134705,42.480736 
	C475.552551,40.948704 468.555878,42.142536 463.026001,48.208828 
	C462.359253,48.940277 461.476746,49.475044 460.042847,50.621986 
	C460.042847,40.111244 460.042847,30.517313 460.042847,20.695980 
	C455.282867,20.695980 450.862518,20.695980 446.249298,20.695980 
	C446.249298,46.829418 446.249298,72.720482 446.249298,98.802795 
	C450.872375,98.802795 455.280426,98.802795 460.090179,98.802795 
	C460.090179,89.325760 459.977356,80.043304 460.153229,70.766327 
	C460.212341,67.648430 460.590271,64.408669 461.552734,61.463238 
	C463.389008,55.843719 468.930603,53.043640 475.208801,54.021042 
	C479.979401,54.763737 482.096100,57.753681 482.186188,64.448318 
	C482.302734,73.107307 482.226562,81.768883 482.233368,91.404396 
M210.032745,79.211136 
	C213.847748,92.853043 221.874832,99.493126 235.143814,99.983299 
	C248.134293,100.463181 256.546173,95.997276 260.059357,86.541679 
	C256.957092,84.580467 253.810730,82.591370 250.738815,80.649330 
	C244.790665,87.920296 238.603729,89.860069 231.523270,87.043221 
	C226.430923,85.017311 223.887634,80.550987 224.321579,74.111855 
	C230.289474,74.111855 236.276474,74.111855 242.263474,74.111855 
	C248.345856,74.111855 254.428238,74.111855 261.265320,74.111855 
	C260.870422,68.640732 261.388489,63.758854 259.978302,59.518173 
	C258.427155,54.853630 256.056854,49.577221 252.382431,46.658325 
	C237.632797,34.941463 213.660446,44.084202 210.238251,62.504433 
	C209.285263,67.633942 210.002838,73.073814 210.032745,79.211136 
M350.646027,86.119690 
	C346.473633,83.273453 344.762146,79.327148 345.112396,73.805023 
	C357.421265,73.805023 369.467438,73.805023 382.384369,73.805023 
	C381.841553,67.962212 382.182892,62.458187 380.614960,57.566078 
	C379.279541,53.399426 376.507233,48.917927 373.053619,46.340054 
	C358.294922,35.323715 335.281342,43.988522 331.360657,61.892002 
	C330.317810,66.654030 330.295288,71.844185 330.862030,76.714699 
	C332.407745,89.998230 339.693298,97.378510 352.605011,99.655159 
	C365.825745,101.986290 376.828522,97.051132 381.112335,86.604500 
	C378.023224,84.629662 374.885284,82.623589 371.813446,80.659790 
	C365.194244,88.462494 360.342224,89.778374 350.646027,86.119690 
M392.524231,94.029663 
	C401.388977,100.474113 411.266602,101.390068 421.523590,98.815750 
	C429.572601,96.795593 434.377014,90.404182 434.533020,82.554283 
	C434.692413,74.534958 430.780060,69.334435 422.161743,66.630241 
	C417.895538,65.291618 413.320099,64.820374 409.209015,63.155506 
	C407.171692,62.330433 404.719574,59.827457 404.488068,57.846073 
	C404.089844,54.437527 407.477203,52.867149 410.312195,53.231533 
	C415.345123,53.878426 420.263519,55.416599 426.456909,56.869827 
	C427.755463,55.428646 430.250732,52.659286 432.930420,49.685246 
	C424.525726,41.565331 414.917023,40.686932 404.727112,42.946171 
	C396.344177,44.804768 391.479767,50.425434 391.076630,57.967915 
	C390.660858,65.747360 394.658051,71.286736 403.130066,74.141632 
	C407.207733,75.515724 411.647675,75.957878 415.537872,77.688873 
	C417.711029,78.655846 420.278290,81.238388 420.566956,83.376572 
	C421.048615,86.944275 417.657562,88.168556 414.497131,88.550034 
	C413.032410,88.726845 411.336945,88.950974 410.064240,88.407951 
	C405.482635,86.453110 401.036499,84.180702 396.037659,81.788239 
	C394.092560,83.894241 391.514008,86.686119 388.700439,89.732445 
	C389.854370,91.080795 390.916107,92.321404 392.524231,94.029663 
M300.130859,99.005852 
	C302.687866,99.508118 303.948822,98.378769 304.783325,95.943748 
	C306.985931,89.516533 309.451447,83.179649 311.792328,76.799492 
	C315.883118,65.649887 319.958954,54.494785 324.169586,42.990799 
	C320.141449,42.990799 316.643646,43.158024 313.170715,42.936321 
	C310.533081,42.767944 309.451569,43.760513 308.650574,46.255527 
	C306.168335,53.987366 303.378845,61.621197 300.670532,69.279602 
	C299.059296,73.835762 297.376495,78.366600 295.231293,84.269760 
	C290.092194,69.605034 285.454163,56.370178 280.875214,43.303936 
	C275.899628,43.303936 271.203644,43.303936 266.179718,43.303936 
	C271.719910,58.290287 277.108307,72.893196 282.517181,87.488533 
	C286.786987,99.010101 286.798157,99.005959 300.130859,99.005852 
z"/>
<path fill="#F2F2F3" opacity="1.000000" stroke="none" 
	d="
M108.731621,108.766083 
	C102.400696,114.957619 94.780991,116.877487 86.650291,116.954628 
	C70.834564,117.104698 55.014847,116.859795 39.199680,117.037041 
	C22.922258,117.219467 7.356939,104.988159 7.906437,85.674538 
	C8.360826,69.703812 8.332948,53.701084 7.912097,37.728519 
	C7.418022,18.976801 21.551222,6.181546 39.392658,6.029087 
	C54.542721,5.899627 69.699524,5.769310 84.844406,6.077888 
	C96.540840,6.316204 106.884819,9.750023 113.853554,20.225433 
	C118.308151,26.921585 118.520859,34.325260 118.520218,41.858677 
	C118.519089,55.197159 118.472359,68.535667 118.424232,81.874092 
	C118.388237,91.850327 117.225342,101.438423 108.731621,108.766083 
M69.939705,105.425011 
	C89.209778,102.478630 105.382309,87.079697 107.593719,69.363983 
	C107.756790,65.215675 108.300499,61.041397 108.019501,56.923393 
	C106.501839,34.682819 86.640526,14.600394 60.959976,16.306831 
	C35.196735,18.018763 18.010445,38.019867 18.836990,63.982674 
	C19.639065,89.176758 44.168690,109.406456 69.939705,105.425011 
z"/>
<path fill="#050505" opacity="1.000000" stroke="none" 
	d="
M134.327026,65.999847 
	C134.327026,52.201645 134.327026,38.903439 134.327026,24.823576 
	C141.299545,24.823576 148.035980,24.714069 154.767014,24.857912 
	C160.241302,24.974897 165.811905,24.824787 171.160477,25.788454 
	C187.229797,28.683716 196.235092,38.567387 197.800415,54.836060 
	C198.291138,59.936207 198.363342,65.221382 197.610458,70.270264 
	C194.976059,87.936874 184.125061,97.780296 165.871078,98.783363 
	C155.590576,99.348282 145.253571,98.885170 134.327011,98.885170 
	C134.327011,88.027779 134.327011,77.263817 134.327026,65.999847 
M154.603760,86.732529 
	C159.394791,86.350960 164.321228,86.547417 168.947723,85.463531 
	C177.692764,83.414764 182.269653,76.591476 182.947998,65.999512 
	C183.888138,51.319698 180.305786,42.682732 171.555191,39.108654 
	C164.274048,36.134758 156.690491,37.081387 149.202850,37.208435 
	C149.202850,53.920906 149.202850,70.028572 149.202850,86.482460 
	C150.781418,86.570831 152.225403,86.651672 154.603760,86.732529 
z"/>
<path fill="#040404" opacity="1.000000" stroke="none" 
	d="
M482.233337,90.916870 
	C482.226562,81.768883 482.302734,73.107307 482.186188,64.448318 
	C482.096100,57.753681 479.979401,54.763737 475.208801,54.021042 
	C468.930603,53.043640 463.389008,55.843719 461.552734,61.463238 
	C460.590271,64.408669 460.212341,67.648430 460.153229,70.766327 
	C459.977356,80.043304 460.090179,89.325760 460.090179,98.802795 
	C455.280426,98.802795 450.872375,98.802795 446.249298,98.802795 
	C446.249298,72.720482 446.249298,46.829418 446.249298,20.695980 
	C450.862518,20.695980 455.282867,20.695980 460.042847,20.695980 
	C460.042847,30.517313 460.042847,40.111244 460.042847,50.621986 
	C461.476746,49.475044 462.359253,48.940277 463.026001,48.208828 
	C468.555878,42.142536 475.552551,40.948704 483.134705,42.480736 
	C491.071045,44.084324 495.750549,49.621716 496.006805,58.613914 
	C496.385437,71.900177 496.104675,85.205238 496.104675,98.753754 
	C491.676147,98.753754 487.246338,98.753754 482.233368,98.753754 
	C482.233368,96.284332 482.233368,93.844368 482.233337,90.916870 
z"/>
<path fill="#040404" opacity="1.000000" stroke="none" 
	d="
M209.993378,78.791222 
	C210.002838,73.073814 209.285263,67.633942 210.238251,62.504433 
	C213.660446,44.084202 237.632797,34.941463 252.382431,46.658325 
	C256.056854,49.577221 258.427155,54.853630 259.978302,59.518173 
	C261.388489,63.758854 260.870422,68.640732 261.265320,74.111855 
	C254.428238,74.111855 248.345856,74.111855 242.263474,74.111855 
	C236.276474,74.111855 230.289474,74.111855 224.321579,74.111855 
	C223.887634,80.550987 226.430923,85.017311 231.523270,87.043221 
	C238.603729,89.860069 244.790665,87.920296 250.738815,80.649330 
	C253.810730,82.591370 256.957092,84.580467 260.059357,86.541679 
	C256.546173,95.997276 248.134293,100.463181 235.143814,99.983299 
	C221.874832,99.493126 213.847748,92.853043 209.993378,78.791222 
M238.480972,65.041023 
	C241.387756,65.041023 244.294540,65.041023 247.199966,65.041023 
	C246.765991,56.365368 243.617050,52.963318 236.566238,52.930256 
	C229.250671,52.895954 224.887527,57.213379 224.526093,65.041023 
	C228.851837,65.041023 233.170715,65.041023 238.480972,65.041023 
z"/>
<path fill="#040404" opacity="1.000000" stroke="none" 
	d="
M350.977936,86.331558 
	C360.342224,89.778374 365.194244,88.462494 371.813446,80.659790 
	C374.885284,82.623589 378.023224,84.629662 381.112335,86.604500 
	C376.828522,97.051132 365.825745,101.986290 352.605011,99.655159 
	C339.693298,97.378510 332.407745,89.998230 330.862030,76.714699 
	C330.295288,71.844185 330.317810,66.654030 331.360657,61.892002 
	C335.281342,43.988522 358.294922,35.323715 373.053619,46.340054 
	C376.507233,48.917927 379.279541,53.399426 380.614960,57.566078 
	C382.182892,62.458187 381.841553,67.962212 382.384369,73.805023 
	C369.467438,73.805023 357.421265,73.805023 345.112396,73.805023 
	C344.762146,79.327148 346.473633,83.273453 350.977936,86.331558 
M352.656982,53.728966 
	C347.655823,55.738712 345.762146,59.755451 345.160522,64.791412 
	C353.044220,64.791412 360.592773,64.791412 368.143097,64.791412 
	C367.857086,55.062592 363.736511,51.945168 352.656982,53.728966 
z"/>
<path fill="#050505" opacity="1.000000" stroke="none" 
	d="
M392.251038,93.795837 
	C390.916107,92.321404 389.854370,91.080795 388.700439,89.732445 
	C391.514008,86.686119 394.092560,83.894241 396.037659,81.788239 
	C401.036499,84.180702 405.482635,86.453110 410.064240,88.407951 
	C411.336945,88.950974 413.032410,88.726845 414.497131,88.550034 
	C417.657562,88.168556 421.048615,86.944275 420.566956,83.376572 
	C420.278290,81.238388 417.711029,78.655846 415.537872,77.688873 
	C411.647675,75.957878 407.207733,75.515724 403.130066,74.141632 
	C394.658051,71.286736 390.660858,65.747360 391.076630,57.967915 
	C391.479767,50.425434 396.344177,44.804768 404.727112,42.946171 
	C414.917023,40.686932 424.525726,41.565331 432.930420,49.685246 
	C430.250732,52.659286 427.755463,55.428646 426.456909,56.869827 
	C420.263519,55.416599 415.345123,53.878426 410.312195,53.231533 
	C407.477203,52.867149 404.089844,54.437527 404.488068,57.846073 
	C404.719574,59.827457 407.171692,62.330433 409.209015,63.155506 
	C413.320099,64.820374 417.895538,65.291618 422.161743,66.630241 
	C430.780060,69.334435 434.692413,74.534958 434.533020,82.554283 
	C434.377014,90.404182 429.572601,96.795593 421.523590,98.815750 
	C411.266602,101.390068 401.388977,100.474113 392.251038,93.795837 
z"/>
<path fill="#040404" opacity="1.000000" stroke="none" 
	d="
M299.673431,99.005875 
	C286.798157,99.005959 286.786987,99.010101 282.517181,87.488533 
	C277.108307,72.893196 271.719910,58.290287 266.179718,43.303936 
	C271.203644,43.303936 275.899628,43.303936 280.875214,43.303936 
	C285.454163,56.370178 290.092194,69.605034 295.231293,84.269760 
	C297.376495,78.366600 299.059296,73.835762 300.670532,69.279602 
	C303.378845,61.621197 306.168335,53.987366 308.650574,46.255527 
	C309.451569,43.760513 310.533081,42.767944 313.170715,42.936321 
	C316.643646,43.158024 320.141449,42.990799 324.169586,42.990799 
	C319.958954,54.494785 315.883118,65.649887 311.792328,76.799492 
	C309.451447,83.179649 306.985931,89.516533 304.783325,95.943748 
	C303.948822,98.378769 302.687866,99.508118 299.673431,99.005875 
z"/>
<path fill="#8169AC" opacity="1.000000" stroke="none" 
	d="
M69.100975,105.435623 
	C44.168690,109.406456 19.639065,89.176758 18.836990,63.982674 
	C18.010445,38.019867 35.196735,18.018763 60.959976,16.306831 
	C86.640526,14.600394 106.501839,34.682819 108.019501,56.923393 
	C108.300499,61.041397 107.756790,65.215675 107.037758,69.563446 
	C103.749649,67.100792 101.058723,64.394707 98.276024,61.786537 
	C93.709686,57.506607 89.083763,53.290249 84.255554,48.837944 
	C81.102737,43.294811 76.370094,39.902615 70.613205,39.359764 
	C62.989105,38.640842 55.246124,39.182667 47.043636,39.182667 
	C47.043636,53.537388 47.019218,67.440521 47.115875,81.342819 
	C47.120697,82.036659 48.176331,82.723190 48.827980,83.782974 
	C49.499111,84.898888 50.025406,85.702278 50.680042,86.382080 
	C56.807808,92.745338 62.957577,99.087418 69.100975,105.435623 
z"/>
<path fill="#614F81" opacity="1.000000" stroke="none" 
	d="
M84.482971,49.047085 
	C89.083763,53.290249 93.709686,57.506607 98.276024,61.786537 
	C101.058723,64.394707 103.749649,67.100792 106.793900,69.899719 
	C105.382309,87.079697 89.209778,102.478630 69.520340,105.430313 
	C62.957577,99.087418 56.807808,92.745338 50.680042,86.382080 
	C50.025406,85.702278 49.499111,84.898888 49.317638,83.835114 
	C53.686634,83.642555 57.671970,84.086899 61.611900,83.831291 
	C72.192833,83.144821 81.618401,80.289307 85.465607,68.846146 
	C87.714645,62.156612 87.329041,55.521854 84.482971,49.047085 
z"/>
<path fill="#FCFCFC" opacity="1.000000" stroke="none" 
	d="
M154.136581,86.732521 
	C152.225403,86.651672 150.781418,86.570831 149.202850,86.482460 
	C149.202850,70.028572 149.202850,53.920906 149.202850,37.208435 
	C156.690491,37.081387 164.274048,36.134758 171.555191,39.108654 
	C180.305786,42.682732 183.888138,51.319698 182.947998,65.999512 
	C182.269653,76.591476 177.692764,83.414764 168.947723,85.463531 
	C164.321228,86.547417 159.394791,86.350960 154.136581,86.732521 
z"/>
<path fill="#FAFAFA" opacity="1.000000" stroke="none" 
	d="
M237.985291,65.041023 
	C233.170715,65.041023 228.851837,65.041023 224.526093,65.041023 
	C224.887527,57.213379 229.250671,52.895954 236.566238,52.930256 
	C243.617050,52.963318 246.765991,56.365368 247.199966,65.041023 
	C244.294540,65.041023 241.387756,65.041023 237.985291,65.041023 
z"/>
<path fill="#FAFAFA" opacity="1.000000" stroke="none" 
	d="
M353.029297,53.561821 
	C363.736511,51.945168 367.857086,55.062592 368.143097,64.791412 
	C360.592773,64.791412 353.044220,64.791412 345.160522,64.791412 
	C345.762146,59.755451 347.655823,55.738712 353.029297,53.561821 
z"/>
<path fill="#FAF9FA" opacity="1.000000" stroke="none" 
	d="
M84.255554,48.837944 
	C87.329041,55.521854 87.714645,62.156612 85.465607,68.846146 
	C81.618401,80.289307 72.192833,83.144821 61.611900,83.831291 
	C57.671970,84.086899 53.686634,83.642555 49.232338,83.465256 
	C48.176331,82.723190 47.120697,82.036659 47.115875,81.342819 
	C47.019218,67.440521 47.043636,53.537388 47.043636,39.182667 
	C55.246124,39.182667 62.989105,38.640842 70.613205,39.359764 
	C76.370094,39.902615 81.102737,43.294811 84.255554,48.837944 
M57.269859,58.529572 
	C57.269859,64.274452 57.269859,70.019333 57.269859,76.012764 
	C59.693161,76.012764 61.350685,76.125763 62.988434,75.993607 
	C70.968033,75.349747 75.853401,69.809853 76.090141,61.225334 
	C76.326660,52.649002 72.353783,47.379673 64.771996,46.213757 
	C58.055988,45.180984 57.276726,45.839504 57.271290,52.554302 
	C57.269943,54.217319 57.270653,55.880341 57.269859,58.529572 
z"/>
<path fill="#655485" opacity="1.000000" stroke="none" 
	d="
M57.270142,58.036465 
	C57.270653,55.880341 57.269943,54.217319 57.271290,52.554302 
	C57.276726,45.839504 58.055988,45.180984 64.771996,46.213757 
	C72.353783,47.379673 76.326660,52.649002 76.090141,61.225334 
	C75.853401,69.809853 70.968033,75.349747 62.988434,75.993607 
	C61.350685,76.125763 59.693161,76.012764 57.269859,76.012764 
	C57.269859,70.019333 57.269859,64.274452 57.270142,58.036465 
z"/>
</svg>