<svg version="1.1" id="Layer_1" xmlns="http://www.w3.org/2000/svg" xmlns:xlink="http://www.w3.org/1999/xlink" x="0px" y="0px"
	 width="100%" viewBox="0 0 511 125" enable-background="new 0 0 511 125" xml:space="preserve">
<path fill="#0E2539" opacity="1.000000" stroke="none" 
	d="
M338.000000,126.000000 
	C225.333359,126.000000 113.166710,126.000000 1.000045,126.000000 
	C1.000030,84.333359 1.000030,42.666721 1.000015,1.000062 
	C171.333267,1.000041 341.666534,1.000041 511.999878,1.000021 
	C511.999908,42.666599 511.999908,84.333199 511.999939,125.999901 
	C454.166656,126.000000 396.333344,126.000000 338.000000,126.000000 
M26.518311,12.974036 
	C18.757729,18.775791 13.978658,26.315353 13.887204,36.174492 
	C13.725055,53.654636 13.609245,71.141075 13.899388,88.617821 
	C14.165230,104.630829 26.866077,117.485550 42.844185,117.797508 
	C60.319107,118.138687 77.811195,118.124916 95.286194,117.779701 
	C110.565704,117.477844 123.375954,105.920265 124.047264,90.647102 
	C124.872063,71.881805 124.784447,53.026703 123.994659,34.256565 
	C123.409073,20.339575 112.179489,8.668580 98.396629,7.985258 
	C79.310493,7.039012 60.139362,7.324773 41.023190,7.811695 
	C36.339859,7.930988 31.728601,10.879834 26.518311,12.974036 
M142.840546,103.004906 
	C151.995285,102.986725 161.155792,103.169495 170.303513,102.906937 
	C187.337402,102.418037 199.302856,93.991478 202.500504,79.195656 
	C204.017532,72.176125 204.238190,64.602211 203.515869,57.433647 
	C202.258377,44.953911 195.866409,35.421917 183.502686,31.315834 
	C169.463379,26.653273 154.956848,29.621674 140.334549,28.730120 
	C140.334549,53.195332 140.318054,76.808647 140.400757,100.421616 
	C140.403778,101.278435 141.381775,102.131836 142.840546,103.004906 
M488.045837,82.500977 
	C488.045837,89.264557 488.045837,96.028130 488.045837,102.690582 
	C493.086670,102.690582 497.496613,102.690582 501.997406,102.690582 
	C501.997406,89.398247 502.284149,76.410309 501.911835,63.441284 
	C501.580048,51.882397 494.783447,45.977589 483.275330,45.920715 
	C476.314484,45.886314 471.135742,49.222572 465.830200,55.288635 
	C465.830200,44.121094 465.830200,34.443783 465.830200,24.677132 
	C460.955902,24.677132 456.677582,24.677132 452.147278,24.677132 
	C452.147278,50.786800 452.147278,76.678886 452.147278,102.781540 
	C456.708679,102.781540 461.113098,102.781540 465.947205,102.781540 
	C465.947205,93.113258 465.828278,83.658508 466.014801,74.209785 
	C466.076141,71.101913 466.467072,67.842278 467.518097,64.946320 
	C469.497498,59.492378 475.519012,56.789772 481.526794,58.092735 
	C485.906769,59.042664 487.920135,62.206181 488.021057,68.506325 
	C488.090454,72.837227 488.041748,77.170021 488.045837,82.500977 
M232.824509,78.110222 
	C244.055435,78.110222 255.286362,78.110222 267.584412,78.110222 
	C266.829803,71.589195 266.790131,65.883797 265.406982,60.525181 
	C263.222687,52.062805 256.818726,47.638439 248.450577,46.401390 
	C238.248550,44.893238 228.784485,46.541630 221.672806,54.903088 
	C214.247269,63.633572 213.060272,80.488701 218.934372,91.269066 
	C224.099716,100.748711 235.420502,105.647354 248.243378,103.809135 
	C256.447906,102.632980 262.762817,98.764725 266.350037,90.737274 
	C262.981934,88.593773 259.927490,86.649910 256.727325,84.613281 
	C255.587234,86.008354 254.742126,87.231148 253.711761,88.270264 
	C249.469238,92.548958 244.243652,92.712692 238.849136,91.456375 
	C233.935226,90.311996 231.276581,86.746483 230.314621,82.050705 
	C230.077927,80.895248 231.333450,79.434097 232.824509,78.110222 
M382.925934,53.656109 
	C372.093292,42.486813 351.484924,43.430309 342.118835,55.524364 
	C335.157837,64.512825 334.108002,81.204361 340.135284,91.569794 
	C346.549438,102.600441 357.075623,104.810532 368.630341,103.818108 
	C377.097321,103.090881 383.594177,99.009605 387.373016,90.740738 
	C383.948273,88.573112 380.805511,86.583961 377.743347,84.645821 
	C371.774017,91.943214 365.558899,93.877823 358.489777,91.030807 
	C353.389069,88.976547 350.812805,84.384079 351.418488,77.971329 
	C363.323151,77.971329 375.269623,77.971329 387.590851,77.971329 
	C388.416260,69.393974 388.447205,61.399818 382.925934,53.656109 
M409.854279,47.032101 
	C400.698853,50.513885 396.618469,55.889675 397.081970,63.859257 
	C397.524078,71.460793 402.180908,76.394226 411.408447,78.952858 
	C415.088928,79.973381 418.992676,80.465866 422.415253,82.029488 
	C424.298340,82.889786 426.788940,85.750069 426.500610,87.215836 
	C426.114441,89.178802 423.524353,91.067856 421.452240,92.214645 
	C420.041595,92.995331 417.672241,93.012352 416.123138,92.392418 
	C411.497101,90.541138 407.063904,88.207848 402.025665,85.810760 
	C400.099915,87.893806 397.520508,90.683907 394.418762,94.038971 
	C396.800934,96.094818 398.767761,98.449562 401.271210,99.833801 
	C409.999084,104.659752 419.304962,105.484917 428.763458,102.346367 
	C436.402832,99.811424 440.543396,93.827614 440.518982,86.186172 
	C440.494202,78.428833 436.878174,73.528374 428.716431,70.862228 
	C424.306885,69.421776 419.569244,68.898170 415.288971,67.187096 
	C413.234222,66.365677 410.752563,63.900066 410.489746,61.911373 
	C410.038055,58.493561 413.415833,56.882874 416.256592,57.236652 
	C421.297882,57.864475 426.226929,59.393768 432.471558,60.839649 
	C433.742218,59.433056 436.239136,56.669071 438.921906,53.699329 
	C430.501068,45.514698 420.911194,44.851578 409.854279,47.032101 
M324.927521,61.437576 
	C326.611145,56.781567 328.294769,52.125557 330.150970,46.992256 
	C326.078278,46.992256 322.422729,46.694969 318.858551,47.136108 
	C317.398224,47.316856 315.490417,48.816395 314.900635,50.193359 
	C312.943970,54.761585 311.510742,59.552780 309.846069,64.247574 
	C307.168274,71.799568 304.465973,79.342888 301.267426,88.310234 
	C296.103363,73.603371 291.452942,60.359226 286.806244,47.125717 
	C281.896515,47.125717 277.257416,47.125717 272.115051,47.125717 
	C277.340363,61.231472 282.435486,75.068733 287.599670,88.880173 
	C289.334412,93.519699 290.017639,100.003319 293.406769,102.181206 
	C297.082916,104.543533 303.353577,102.873230 308.493073,102.942062 
	C308.810577,102.946312 309.130341,102.781029 309.650238,102.640091 
	C314.628784,89.224464 319.648071,75.699127 324.927521,61.437576 
z"/>
<path fill="#EFEFF0" opacity="1.000000" stroke="none" 
	d="
M26.801258,12.750910 
	C31.728601,10.879834 36.339859,7.930988 41.023190,7.811695 
	C60.139362,7.324773 79.310493,7.039012 98.396629,7.985258 
	C112.179489,8.668580 123.409073,20.339575 123.994659,34.256565 
	C124.784447,53.026703 124.872063,71.881805 124.047264,90.647102 
	C123.375954,105.920265 110.565704,117.477844 95.286194,117.779701 
	C77.811195,118.124916 60.319107,118.138687 42.844185,117.797508 
	C26.866077,117.485550 14.165230,104.630829 13.899388,88.617821 
	C13.609245,71.141075 13.725055,53.654636 13.887204,36.174492 
	C13.978658,26.315353 18.757729,18.775791 26.801258,12.750910 
M113.503525,70.272629 
	C119.144402,36.340046 88.060234,8.998800 55.689903,19.420496 
	C33.166740,26.671879 20.471718,49.760738 26.022614,73.377403 
	C31.041971,94.732613 53.371883,109.768456 75.933334,106.435684 
	C78.033730,105.991753 80.165741,105.661201 82.229500,105.085861 
	C98.011292,100.686195 111.670387,85.566406 113.503525,70.272629 
z"/>
<path fill="#FBFBFB" opacity="1.000000" stroke="none" 
	d="
M142.372955,102.995865 
	C141.381775,102.131836 140.403778,101.278435 140.400757,100.421616 
	C140.318054,76.808647 140.334549,53.195332 140.334549,28.730120 
	C154.956848,29.621674 169.463379,26.653273 183.502686,31.315834 
	C195.866409,35.421917 202.258377,44.953911 203.515869,57.433647 
	C204.238190,64.602211 204.017532,72.176125 202.500504,79.195656 
	C199.302856,93.991478 187.337402,102.418037 170.303513,102.906937 
	C161.155792,103.169495 151.995285,102.986725 142.372955,102.995865 
M172.488678,41.698166 
	C166.764069,41.416161 161.039444,41.134159 155.364532,40.854607 
	C155.364532,57.905838 155.364532,74.114891 155.364532,90.426865 
	C160.469513,90.426865 165.299484,90.839783 170.034683,90.345200 
	C181.688644,89.127953 187.271744,83.633194 188.713257,72.015221 
	C189.220398,67.927933 189.200089,63.669426 188.685059,59.581776 
	C187.371109,49.153473 182.920395,44.262421 172.488678,41.698166 
z"/>
<path fill="#FCFCFD" opacity="1.000000" stroke="none" 
	d="
M488.045837,82.001472 
	C488.041748,77.170021 488.090454,72.837227 488.021057,68.506325 
	C487.920135,62.206181 485.906769,59.042664 481.526794,58.092735 
	C475.519012,56.789772 469.497498,59.492378 467.518097,64.946320 
	C466.467072,67.842278 466.076141,71.101913 466.014801,74.209785 
	C465.828278,83.658508 465.947205,93.113258 465.947205,102.781540 
	C461.113098,102.781540 456.708679,102.781540 452.147278,102.781540 
	C452.147278,76.678886 452.147278,50.786800 452.147278,24.677132 
	C456.677582,24.677132 460.955902,24.677132 465.830200,24.677132 
	C465.830200,34.443783 465.830200,44.121094 465.830200,55.288635 
	C471.135742,49.222572 476.314484,45.886314 483.275330,45.920715 
	C494.783447,45.977589 501.580048,51.882397 501.911835,63.441284 
	C502.284149,76.410309 501.997406,89.398247 501.997406,102.690582 
	C497.496613,102.690582 493.086670,102.690582 488.045837,102.690582 
	C488.045837,96.028130 488.045837,89.264557 488.045837,82.001472 
z"/>
<path fill="#FBFBFB" opacity="1.000000" stroke="none" 
	d="
M232.363739,78.111847 
	C231.333450,79.434097 230.077927,80.895248 230.314621,82.050705 
	C231.276581,86.746483 233.935226,90.311996 238.849136,91.456375 
	C244.243652,92.712692 249.469238,92.548958 253.711761,88.270264 
	C254.742126,87.231148 255.587234,86.008354 256.727325,84.613281 
	C259.927490,86.649910 262.981934,88.593773 266.350037,90.737274 
	C262.762817,98.764725 256.447906,102.632980 248.243378,103.809135 
	C235.420502,105.647354 224.099716,100.748711 218.934372,91.269066 
	C213.060272,80.488701 214.247269,63.633572 221.672806,54.903088 
	C228.784485,46.541630 238.248550,44.893238 248.450577,46.401390 
	C256.818726,47.638439 263.222687,52.062805 265.406982,60.525181 
	C266.790131,65.883797 266.829803,71.589195 267.584412,78.110222 
	C255.286362,78.110222 244.055435,78.110222 232.363739,78.111847 
M248.095886,58.030369 
	C238.220413,54.791336 231.833801,58.600765 230.287521,68.680786 
	C237.920471,68.680786 245.543335,68.680786 255.033524,68.680786 
	C252.520538,64.524338 250.665314,61.455818 248.095886,58.030369 
z"/>
<path fill="#FBFBFB" opacity="1.000000" stroke="none" 
	d="
M383.143982,53.952187 
	C388.447205,61.399818 388.416260,69.393974 387.590851,77.971329 
	C375.269623,77.971329 363.323151,77.971329 351.418488,77.971329 
	C350.812805,84.384079 353.389069,88.976547 358.489777,91.030807 
	C365.558899,93.877823 371.774017,91.943214 377.743347,84.645821 
	C380.805511,86.583961 383.948273,88.573112 387.373016,90.740738 
	C383.594177,99.009605 377.097321,103.090881 368.630341,103.818108 
	C357.075623,104.810532 346.549438,102.600441 340.135284,91.569794 
	C334.108002,81.204361 335.157837,64.512825 342.118835,55.524364 
	C351.484924,43.430309 372.093292,42.486813 383.143982,53.952187 
M372.106384,60.584969 
	C368.488220,56.245800 363.760254,56.179340 358.979584,57.638664 
	C353.746704,59.236034 351.886108,63.579655 351.093109,68.694977 
	C358.912811,68.694977 366.534546,68.694977 374.799469,68.694977 
	C373.975128,65.871483 373.294464,63.540031 372.106384,60.584969 
z"/>
<path fill="#FAFAFB" opacity="1.000000" stroke="none" 
	d="
M410.262817,46.963432 
	C420.911194,44.851578 430.501068,45.514698 438.921906,53.699329 
	C436.239136,56.669071 433.742218,59.433056 432.471558,60.839649 
	C426.226929,59.393768 421.297882,57.864475 416.256592,57.236652 
	C413.415833,56.882874 410.038055,58.493561 410.489746,61.911373 
	C410.752563,63.900066 413.234222,66.365677 415.288971,67.187096 
	C419.569244,68.898170 424.306885,69.421776 428.716431,70.862228 
	C436.878174,73.528374 440.494202,78.428833 440.518982,86.186172 
	C440.543396,93.827614 436.402832,99.811424 428.763458,102.346367 
	C419.304962,105.484917 409.999084,104.659752 401.271210,99.833801 
	C398.767761,98.449562 396.800934,96.094818 394.418762,94.038971 
	C397.520508,90.683907 400.099915,87.893806 402.025665,85.810760 
	C407.063904,88.207848 411.497101,90.541138 416.123138,92.392418 
	C417.672241,93.012352 420.041595,92.995331 421.452240,92.214645 
	C423.524353,91.067856 426.114441,89.178802 426.500610,87.215836 
	C426.788940,85.750069 424.298340,82.889786 422.415253,82.029488 
	C418.992676,80.465866 415.088928,79.973381 411.408447,78.952858 
	C402.180908,76.394226 397.524078,71.460793 397.081970,63.859257 
	C396.618469,55.889675 400.698853,50.513885 410.262817,46.963432 
z"/>
<path fill="#FBFBFC" opacity="1.000000" stroke="none" 
	d="
M324.797424,61.805679 
	C319.648071,75.699127 314.628784,89.224464 309.650238,102.640091 
	C309.130341,102.781029 308.810577,102.946312 308.493073,102.942062 
	C303.353577,102.873230 297.082916,104.543533 293.406769,102.181206 
	C290.017639,100.003319 289.334412,93.519699 287.599670,88.880173 
	C282.435486,75.068733 277.340363,61.231472 272.115051,47.125717 
	C277.257416,47.125717 281.896515,47.125717 286.806244,47.125717 
	C291.452942,60.359226 296.103363,73.603371 301.267426,88.310234 
	C304.465973,79.342888 307.168274,71.799568 309.846069,64.247574 
	C311.510742,59.552780 312.943970,54.761585 314.900635,50.193359 
	C315.490417,48.816395 317.398224,47.316856 318.858551,47.136108 
	C322.422729,46.694969 326.078278,46.992256 330.150970,46.992256 
	C328.294769,52.125557 326.611145,56.781567 324.797424,61.805679 
z"/>
<path fill="#8169AC" opacity="1.000000" stroke="none" 
	d="
M75.103989,106.426331 
	C53.371883,109.768456 31.041971,94.732613 26.022614,73.377403 
	C20.471718,49.760738 33.166740,26.671879 55.689903,19.420496 
	C88.060234,8.998800 119.144402,36.340046 112.987938,70.492798 
	C109.738663,68.061844 107.043297,65.369766 104.262634,62.768875 
	C99.695129,58.496670 95.072319,54.283600 90.248856,49.830956 
	C83.372787,39.751629 70.444992,36.577141 53.083012,40.787426 
	C53.083012,54.709740 53.064972,68.758881 53.152393,82.807358 
	C53.155708,83.340614 54.179043,83.867523 54.826633,84.762543 
	C55.632874,85.994682 56.282864,86.916107 57.055195,87.719986 
	C63.058170,93.968208 69.084724,100.193764 75.103989,106.426331 
z"/>
<path fill="#614F81" opacity="1.000000" stroke="none" 
	d="
M90.472832,50.045593 
	C95.072319,54.283600 99.695129,58.496670 104.262634,62.768875 
	C107.043297,65.369766 109.738663,68.061844 112.779503,70.854614 
	C111.670387,85.566406 98.011292,100.686195 82.229500,105.085861 
	C80.165741,105.661201 78.033730,105.991753 75.518661,106.431007 
	C69.084724,100.193764 63.058170,93.968208 57.055195,87.719986 
	C56.282864,86.916107 55.632874,85.994682 55.316368,84.802048 
	C59.670643,84.613884 63.655926,85.079613 67.594788,84.825569 
	C78.175407,84.143166 87.621529,81.305313 91.458069,69.848289 
	C93.696640,63.163261 93.356400,56.519409 90.472832,50.045593 
z"/>
<path fill="#10273A" opacity="1.000000" stroke="none" 
	d="
M172.903320,41.779446 
	C182.920395,44.262421 187.371109,49.153473 188.685059,59.581776 
	C189.200089,63.669426 189.220398,67.927933 188.713257,72.015221 
	C187.271744,83.633194 181.688644,89.127953 170.034683,90.345200 
	C165.299484,90.839783 160.469513,90.426865 155.364532,90.426865 
	C155.364532,74.114891 155.364532,57.905838 155.364532,40.854607 
	C161.039444,41.134159 166.764069,41.416161 172.903320,41.779446 
z"/>
<path fill="#11283C" opacity="1.000000" stroke="none" 
	d="
M248.452988,58.208832 
	C250.665314,61.455818 252.520538,64.524338 255.033524,68.680786 
	C245.543335,68.680786 237.920471,68.680786 230.287521,68.680786 
	C231.833801,58.600765 238.220413,54.791336 248.452988,58.208832 
z"/>
<path fill="#11283C" opacity="1.000000" stroke="none" 
	d="
M372.360077,60.896774 
	C373.294464,63.540031 373.975128,65.871483 374.799469,68.694977 
	C366.534546,68.694977 358.912811,68.694977 351.093109,68.694977 
	C351.886108,63.579655 353.746704,59.236034 358.979584,57.638664 
	C363.760254,56.179340 368.488220,56.245800 372.360077,60.896774 
z"/>
<path fill="#FAF9FA" opacity="1.000000" stroke="none" 
	d="
M90.248856,49.830956 
	C93.356400,56.519409 93.696640,63.163261 91.458069,69.848289 
	C87.621529,81.305313 78.175407,84.143166 67.594788,84.825569 
	C63.655926,85.079613 59.670643,84.613884 55.216797,84.436882 
	C54.179043,83.867523 53.155708,83.340614 53.152393,82.807358 
	C53.064972,68.758881 53.083012,54.709740 53.083012,40.787426 
	C70.444992,36.577141 83.372787,39.751629 90.248856,49.830956 
M78.001579,50.447792 
	C74.110306,49.330025 70.250420,48.066719 66.301773,47.214912 
	C65.493126,47.040474 63.505589,48.390488 63.491680,49.067196 
	C63.301926,58.300877 63.363945,67.539726 63.363945,76.812263 
	C70.455452,77.510567 76.441498,76.665230 79.748253,70.604469 
	C83.325333,64.048248 83.432800,57.245995 78.001579,50.447792 
z"/>
<path fill="#655485" opacity="1.000000" stroke="none" 
	d="
M78.275482,50.713936 
	C83.432800,57.245995 83.325333,64.048248 79.748253,70.604469 
	C76.441498,76.665230 70.455452,77.510567 63.363945,76.812263 
	C63.363945,67.539726 63.301926,58.300877 63.491680,49.067196 
	C63.505589,48.390488 65.493126,47.040474 66.301773,47.214912 
	C70.250420,48.066719 74.110306,49.330025 78.275482,50.713936 
z"/>
</svg>